<svg width="117" height="138" viewBox="0 0 117 138" fill="none" xmlns="http://www.w3.org/2000/svg">
<g clip-path="url(#clip0_24_248)">
<path d="M95.9972 126.195C95.7252 124.119 95.7025 124.146 93.8215 124.146C71.203 124.2 68.4834 123.499 68.2794 123.445C65.4918 122.987 63.6107 120.615 63.52 117.219C63.4974 116.788 63.4747 97.9207 63.2934 82.4227C63.2707 81.1559 63.656 80.6977 64.6306 80.4012C67.4635 79.5926 70.2738 78.757 73.0841 77.7867C74.0587 77.4363 74.6253 77.7328 74.9879 78.7301C76.0078 81.5063 76.9823 84.2824 77.9795 87.0586C78.3421 88.0559 78.0022 88.2445 77.2089 88.2445C74.9426 88.1906 72.6762 88.2176 70.3192 88.2176V95.4949H96.6091C96.2918 92.9344 95.9972 90.6164 95.7025 88.0828C94.1161 88.0828 92.5749 88.1906 91.0791 88.0559C85.9571 87.6246 86.9317 86.8699 72.0416 45.3082C70.0472 39.8906 65.7184 28.5703 63.7693 21.266C62.7721 17.4926 65.0158 14.4199 68.0528 14.0965C72.2682 13.6383 76.5517 13.6652 80.7898 13.5574C85.4585 13.4496 90.1273 13.4496 94.796 13.4227C95.4986 13.4227 95.7025 13.0453 95.7705 12.2637C96.0425 9.62227 96.3825 7.00781 96.6771 4.39336C96.8584 2.96484 97.0397 1.50938 97.221 0.0539063L20.3683 0C19.5524 0 19.1671 0.296485 19.3257 1.42852C19.8243 4.98633 19.1444 1.64414 20.7762 13.6383C35.145 13.6383 37.0488 13.8809 43.8479 13.773C46.6355 13.7191 52.2335 14.7164 52.3921 19.7297C52.4828 22.8023 52.1428 22.7754 45.0038 43.2867C32.8107 78.2719 33.5132 75.7113 29.7511 86.6813C29.3658 87.7863 28.9352 88.0828 28.0286 88.0828C26.1022 88.0289 24.1758 88.002 22.272 88.1098C21.8414 88.1367 21.0935 88.5949 21.0255 88.9723C20.6856 91.1555 20.5269 93.3656 20.3003 95.6836H46.2049V88.2445C44.6411 88.2445 38.6126 88.3524 38.2046 87.4629C39.4058 84.1477 40.5617 80.8863 41.7628 77.5711C45.457 78.6492 48.9926 79.6734 52.5508 80.7246C53.3214 80.9672 53.5933 81.5332 53.5933 82.5574C53.5707 94.1203 53.616 105.71 53.6386 117.273C53.6386 120.022 52.3921 122.421 50.2617 123.499C48.7886 124.227 49.5138 124.416 22.748 124.146C21.5468 124.146 21.1388 124.685 21.0255 125.979C20.6856 129.456 20.3683 132.96 19.8923 136.437C19.711 137.784 20.187 137.973 21.0935 137.973C62.6135 138.135 14.1357 137.973 97.493 137.973C96.9264 133.93 96.4958 130.049 95.9972 126.195V126.195ZM56.3583 70.752C53.344 69.6199 50.3297 68.5418 47.3155 67.3828C46.8619 67.1606 46.4226 66.8994 46.001 66.6012C49.8991 54.6609 53.752 42.8555 57.6275 30.9961C59.3272 31.643 59.4179 30.7805 59.7579 30.9961C61.8656 37.0606 63.86 47.1949 65.8771 53.3133C67.3729 57.8145 68.8234 62.3426 70.3418 67.0324C70.0573 67.2426 69.7621 67.4317 69.4579 67.5984C66.489 68.6496 63.4747 69.6199 60.5284 70.752C59.1791 71.3179 57.7076 71.3179 56.3583 70.752V70.752Z" fill="#2A514E"/>
</g>
<defs>
<clipPath id="clip0_24_248">
<rect width="116.038" height="138" fill="white" transform="translate(0.480835)"/>
</clipPath>
</defs>
</svg>
